<?xml version="1.0" encoding="utf-8"?>
<!-- Generator: Adobe Illustrator 24.2.3, SVG Export Plug-In . SVG Version: 6.00 Build 0)  -->
<svg version="1.1" id="Layer_1" xmlns="http://www.w3.org/2000/svg" xmlns:xlink="http://www.w3.org/1999/xlink" x="0px" y="0px"
	 viewBox="0 0 169.8 78.6" style="enable-background:new 0 0 169.8 78.6;" xml:space="preserve">
<style type="text/css">
	.st0{fill:#3392FF;}
</style>
<g id="Layer_2_1_">
	<g id="Layer_1-2">
		<path class="st0" d="M44.3,38.1c-1.7,3.1-4.4,5.5-7.5,7.1c-3.9,1.9-8.2,2.9-12.6,2.7h-9.3v22H0V8.6h24.2c4.3-0.1,8.5,0.7,12.4,2.5
			c3.2,1.5,5.8,4,7.6,7c1.7,3.1,2.6,6.6,2.5,10.2C46.7,31.8,45.9,35.1,44.3,38.1z M29.4,34c1.5-1.5,2.2-3.6,2.1-5.7
			c0.1-2.1-0.6-4.2-2.1-5.7c-1.4-1.3-3.5-2-6.4-2h-8.1V36H23C25.9,36.1,28,35.4,29.4,34z"/>
		<path class="st0" d="M69.4,20.6V33h20v11.5h-20V58H92v12H54.5V8.6H92v12H69.4z"/>
		<path class="st0" d="M147.5,78.6l-16-24.1l-14.1,24.1H95.7l25.2-40L95.1,0h22.3l15.8,23.7L147.1,0h21.7l-25,39.6l26,39H147.5z"/>
	</g>
</g>
</svg>
