<svg xmlns="http://www.w3.org/2000/svg" viewBox="0 0 369.58 78.58"><g id="Layer_2" data-name="Layer 2"><g id="Layer_1-2" data-name="Layer 1"><path d="M44.25,38.11a17.91,17.91,0,0,1-7.51,7.11,26.31,26.31,0,0,1-12.56,2.71H14.92v22H0V8.65H24.18a27.5,27.5,0,0,1,12.39,2.54,17.36,17.36,0,0,1,7.59,7,20.24,20.24,0,0,1,2.53,10.21A19.72,19.72,0,0,1,44.25,38.11ZM29.41,34.05a7.48,7.48,0,0,0,2.1-5.67,7.46,7.46,0,0,0-2.1-5.67c-1.39-1.34-3.52-2-6.37-2H14.92V36.06H23C25.89,36.06,28,35.39,29.41,34.05Z"/><path d="M69.39,20.61V33h20V44.53h-20V58H92v12H54.46V8.65H92v12Z"/><path d="M147.52,78.58l-16-24.07L117.41,78.58H95.7l25.18-40L95.14,0h22.27L133.2,23.73,147.08,0h21.71l-25,39.62,26,39Z"/><path d="M214,8.65v12H189V33.53h18.67V45.14H189V69.92H174.08V8.65Z"/><path d="M322.23,69.92H307.31l-25-37.79V69.92H267.42V8.65h14.93l25,38v-38h14.92Z"/><path d="M347,20.61V33h20V44.53H347V58h22.6v12H332.05V8.65h37.53v12Z"/><path d="M249.12,8.65h-18a8.22,8.22,0,0,0-8.21,8.21V61.71a8.22,8.22,0,0,0,8.21,8.21h18a8.22,8.22,0,0,0,8.21-8.21V16.86A8.22,8.22,0,0,0,249.12,8.65Zm-9,58.37a2.25,2.25,0,1,1,2.25-2.25A2.25,2.25,0,0,1,240.11,67Zm6.52-52.29h-13a.81.81,0,0,1,0-1.62h13a.81.81,0,1,1,0,1.62Z"/></g></g></svg>