<svg xmlns="http://www.w3.org/2000/svg" xmlns:xlink="http://www.w3.org/1999/xlink" viewBox="0 0 481.49 383.17"><defs><style>.cls-1{isolation:isolate;}.cls-16,.cls-2,.cls-20,.cls-25,.cls-30{mix-blend-mode:multiply;}.cls-3{fill:url(#linear-gradient);}.cls-4{fill:url(#linear-gradient-2);}.cls-5{fill:url(#linear-gradient-3);}.cls-6{fill:url(#linear-gradient-4);}.cls-7{fill:url(#linear-gradient-5);}.cls-8{fill:url(#linear-gradient-6);}.cls-9{fill:url(#linear-gradient-7);}.cls-10{fill:url(#linear-gradient-8);}.cls-11{fill:url(#linear-gradient-9);}.cls-12{fill:url(#linear-gradient-10);}.cls-13{fill:url(#linear-gradient-11);}.cls-14{fill:url(#linear-gradient-12);}.cls-15{fill:url(#linear-gradient-13);}.cls-16{fill:#e6e6e6;}.cls-17{fill:#7d29b6;}.cls-18{fill:#b073da;}.cls-19,.cls-20{fill:#ec34bf;}.cls-20{opacity:0.5;}.cls-21{fill:#ff5cd2;}.cls-22{fill:#c70c81;}.cls-23{fill:#3b56c5;}.cls-24{fill:url(#linear-gradient-14);}.cls-25{fill:url(#linear-gradient-15);}.cls-26{fill:#fff;}.cls-27{fill:#5d78d4;}.cls-28{fill:url(#linear-gradient-16);}.cls-29{fill:url(#linear-gradient-17);}.cls-30{fill:url(#linear-gradient-18);}.cls-31{fill:url(#linear-gradient-19);}.cls-32{fill:url(#linear-gradient-20);}.cls-33{fill:url(#linear-gradient-21);}.cls-34{fill:#8699e1;}.cls-35{fill:#415dcc;}.cls-36{fill:#143199;}.cls-37{fill:#fab0d9;}.cls-38{fill:#fb86e0;}.cls-39{fill:#0c685b;}.cls-40{fill:#116c61;}.cls-41{fill:#3d5ac6;}.cls-42{fill:#127263;}.cls-43{fill:#59cfb9;}.cls-44{fill:#31c4af;}.cls-45{fill:#480279;}</style><linearGradient id="linear-gradient" x1="240.74" y1="17.54" x2="240.74" y2="-99.43" gradientUnits="userSpaceOnUse"><stop offset="0" stop-color="#d6e1f4"/><stop offset="0.6" stop-color="#e7edf8"/><stop offset="1" stop-color="#f4f7fc"/></linearGradient><linearGradient id="linear-gradient-2" x1="22.09" y1="17.54" x2="22.09" y2="-99.43" gradientTransform="translate(180.28 107.81) rotate(76.77)" xlink:href="#linear-gradient"/><linearGradient id="linear-gradient-3" x1="30.36" y1="-65.97" x2="30.36" y2="-259.82" xlink:href="#linear-gradient"/><linearGradient id="linear-gradient-4" x1="22.09" y1="-164.52" x2="22.09" y2="-358.37" xlink:href="#linear-gradient"/><linearGradient id="linear-gradient-5" x1="461.77" y1="14.7" x2="461.77" y2="-102.27" gradientTransform="translate(251.82 -278.23) rotate(45)" xlink:href="#linear-gradient"/><linearGradient id="linear-gradient-6" x1="448.49" y1="-65.97" x2="448.49" y2="-259.82" xlink:href="#linear-gradient"/><linearGradient id="linear-gradient-7" x1="465.77" y1="-163.32" x2="465.77" y2="-357.17" xlink:href="#linear-gradient"/><linearGradient id="linear-gradient-8" x1="321.18" y1="17.54" x2="321.18" y2="-99.43" xlink:href="#linear-gradient"/><linearGradient id="linear-gradient-9" x1="297.69" y1="26.44" x2="297.69" y2="-167.42" xlink:href="#linear-gradient"/><linearGradient id="linear-gradient-10" x1="322.51" y1="-6.57" x2="322.51" y2="-200.43" xlink:href="#linear-gradient"/><linearGradient id="linear-gradient-11" x1="158.68" y1="17.54" x2="158.68" y2="-99.43" xlink:href="#linear-gradient"/><linearGradient id="linear-gradient-12" x1="181.36" y1="26.44" x2="181.36" y2="-167.42" xlink:href="#linear-gradient"/><linearGradient id="linear-gradient-13" x1="151.07" y1="1.43" x2="151.07" y2="-192.43" xlink:href="#linear-gradient"/><linearGradient id="linear-gradient-14" x1="167.12" y1="217.82" x2="314.37" y2="217.82" gradientUnits="userSpaceOnUse"><stop offset="0" stop-color="#d6f4ef"/><stop offset="0.6" stop-color="#e7f8f6"/><stop offset="1" stop-color="#f4fcfb"/></linearGradient><linearGradient id="linear-gradient-15" x1="240.74" y1="343.12" x2="240.74" y2="115.09" xlink:href="#linear-gradient-14"/><linearGradient id="linear-gradient-16" x1="285.09" y1="300.82" x2="285.09" y2="324.66" xlink:href="#linear-gradient-14"/><linearGradient id="linear-gradient-17" x1="285.09" y1="315.06" x2="285.09" y2="297.67" xlink:href="#linear-gradient-14"/><linearGradient id="linear-gradient-18" x1="240.74" y1="100.23" x2="240.74" y2="-204.6" xlink:href="#linear-gradient-14"/><linearGradient id="linear-gradient-19" x1="215.81" y1="176.37" x2="270.35" y2="176.37" xlink:href="#linear-gradient-14"/><linearGradient id="linear-gradient-20" x1="231.56" y1="349.66" x2="249.92" y2="349.66" xlink:href="#linear-gradient-14"/><linearGradient id="linear-gradient-21" x1="241.62" y1="185.13" x2="241.62" y2="132.14" xlink:href="#linear-gradient-14"/></defs><g class="cls-1"><g id="Layer_2" data-name="Layer 2"><g id="BACKGROUND"><g class="cls-2"><path class="cls-3" d="M478.8,267.52a48.6,48.6,0,0,0-12.57-20.65c-10.16-9.76-24.75-15.26-31.61-27.56-8.56-15.35-1.64-34.19,1.08-51.55,3.91-25-4.49-54.76-27.71-64.85-20.23-8.79-45.47-.23-64.6-11.21-22.3-12.79-24.4-44.39-41-64C289.13,12.13,267.77,5.8,248,4.38c-26.2-1.87-55.16,4.9-71,25.88-14.7,19.49-17,49.26-38.38,61-14.94,8.17-33.45,3.91-50.15,7.22-33.85,6.7-49.61,39.77-41.73,71.26,3.39,13.52,7.85,27.84,3.37,41-6.4,18.83-28.06,27.48-40.07,43.33-14.49,19.13-12.57,47.49.65,67.52s35.74,32.45,59,38.35,47.56,6,71.56,6l195.93.36c25.34.05,51,.05,75.51-6.53s48-20.62,60.51-42.67C481.66,302.28,483.85,283.54,478.8,267.52Z"/><circle class="cls-4" cx="22.09" cy="167.7" r="8.73" transform="translate(-146.22 150.82) rotate(-76.77)"/><circle class="cls-5" cx="30.36" cy="144.57" r="4"/><path class="cls-6" d="M26.09,125.59a4,4,0,1,1-4-4A4,4,0,0,1,26.09,125.59Z"/><circle class="cls-7" cx="461.77" cy="164.86" r="8.73" transform="translate(18.68 374.81) rotate(-45)"/><circle class="cls-8" cx="448.49" cy="144.57" r="4"/><path class="cls-9" d="M461.77,126.79a4,4,0,1,0,4-4A4,4,0,0,0,461.77,126.79Z"/><path class="cls-10" d="M315.31,19.88a8.73,8.73,0,1,0-.59-12.32A8.74,8.74,0,0,0,315.31,19.88Z"/><path class="cls-11" d="M295,7a4,4,0,1,0-.28-5.65A4,4,0,0,0,295,7Z"/><path class="cls-12" d="M319.82,37a4,4,0,1,0-.27-5.65A4,4,0,0,0,319.82,37Z"/><path class="cls-13" d="M164.55,19.88a8.73,8.73,0,1,1,.59-12.32A8.74,8.74,0,0,1,164.55,19.88Z"/><path class="cls-14" d="M184.05,7a4,4,0,1,1,.28-5.65A4,4,0,0,1,184.05,7Z"/><path class="cls-15" d="M153.75,45a4,4,0,1,1,.28-5.65A4,4,0,0,1,153.75,45Z"/></g></g><g id="OBJECTS"><path class="cls-16" d="M431.79,374.09c0,5-85.53,9.08-191,9.08s-191-4.06-191-9.08,85.53-9.08,191-9.08S431.79,369.07,431.79,374.09Z"/><path class="cls-17" d="M445.13,245.29c-6.26,4.83-9.62,9.46-11.69,17.13-1.48,5.47-.12,10.65-1.84,15.45a2,2,0,0,1-3.85-.48,28.75,28.75,0,0,1,.86-8.36c.76-3.29,3.17-11.31-4.12-8.32-7.09,2.91-3.1,14.27-2.27,22.41a2,2,0,0,1-3.92.58c-1.25-7.26.35-19-7.82-19.58-9.48-.65-1.05,17.44.73,21.4,1.12,2.51,7.26,13.8.43,11.74-3.86-1.15-5.14-10.19-5.7-13.36s.68-10.29-1.81-12.52c-4.18-3.75-6.32,2.1-6.66,5.44-.78,7.55,8.94,15.6,8.88,23.14a2,2,0,0,1-3.41,1.35,23.32,23.32,0,0,1-5.16-7.42c-1.74-3.95-.91-7.81-2.19-11.39-3.47-9.7-8.15,3.44-4.59,9.84,1.6,2.88,13.38,15.39,7.23,19.2l0,0c-.12.08-.25.14-.38.21l-.12.05s0,0-.05,0c-5.77,2.28-12.78-22.83-13.76-26.4-.73-2.65.69-5,1-7.57a2,2,0,0,0-1.26-2.1c-12-4.76-4.69,15.43-2.33,20,2,3.95,4.95,8.86,5.34,13.32s-1.25,11.39-5.75,6.87c-2.5-2.52-5.54-11-6.83-14.49-1.61-4.39-1.43-8.54-2.21-13.05-.62-3.62-3.46-11-7.56-6.3-2.05,2.35-.69,9,0,11.7,2,8.25,13.76,17.59,11.18,26.67a2,2,0,0,1-2.91,1.19c-6.28-3.81-9.36-18-11.46-23.8a25.45,25.45,0,0,1-1.53-6.9c-.15-2.37,1.54-5.39.95-7.67-1.82-7-7.44-3-9.24,1.37-3.78,9.07,1.37,16.36,7.82,22.1,3.35,3,15.21,15.26,4.8,16.4-10.06,1.1-7.18-11.1-10.21-16.52-2.13-3.79-6.26-4.76-8.58-8.42-2-3.17-1.59-7.17-5.15-9.42s-6.8-1.71-7.28,2.72c-.43,3.92,3.22,7.63,5.79,10.18,3.09,3.07,7.81,4.92,10.09,8.74,1.5,2.51,2.67,9.14-1.42,10.15s-12.94-11.15-15-13.95c-5.18-7.14-6-11.46-6-19.42a2,2,0,0,0-1.22-1.85c-5.83-2.51-8,4.77-6.69,9.84,1.51,5.87,5.93,9.93,10.42,13.69,2.71,2.28,11.51,8.05,9.69,12.07-2.57,5.67-10.23,1.35-11.6-1.9-2.21-5.29-1-8.31-6.75-12.15-3.66-2.43-8.29-5.7-12.82-6.2-5.94-.66-8.49,3.07-3.39,7.47,3.75,3.22,9.07,3,13.46,5.13,5,2.37,9.45,9.39,2.56,12.81-3.4,1.68-9.63.74-14-.23a2,2,0,0,0-2.41,1.92c0,1.17,0,2.58-.07,3.83,0,.31,0,.61,0,.89a2,2,0,0,0,2.37,2,93.61,93.61,0,0,0,9.9-2.65c1.59-.47,3.21-.94,4.91-1.33l.09,0c4.11-.95,5.72-1,6.88.83a14.72,14.72,0,0,1,1.39,3.39c1,3,4.23,18.72,9.93,11.95,3.86-4.59-3.92-11-4.16-15.28,0-.26,0-.5,0-.73,0-6.28,5.5-4.57,8.75-1.18a9.7,9.7,0,0,1,.85,1c3.49,4.61,3.73,10.51,3.69,16,0,3.7-1.13,10.74,4.34,11.69,7.86,1.37,4.16-10.08,2.31-13.6-2.09-4-11.87-13.7-4-13.78,12.95-.14,14,21.63,25.31,24.72a2,2,0,0,0,2.47-1.8c.21-4-4.42-7-6.88-9.84-1.68-2-9.77-10.52-9.46-12.59.62-4,7.75-2.92,10.65-1.53,7.3,3.46,7.34,12.61,9,19.41,2,8.43,11.43,11.64,10.08,1.06-.95-7.42-8.19-12.72-11.9-18.73-5.67-9.15,4.15-4.17,8.31-.83,3.92,3.16,6.64,8.12,8.43,12.82,2.73,7.14-.95,18,8.31,21.39,13.75,5.08-1.48-25.28-4.07-29.15-2.44-3.66-6.61-5.23-9.89-7.77-3.5-2.72-5.69-7.27.6-7.38,3.9-.07,6.55,4,8.55,6.57,4.8,6.16,7.55,16.6,14.52,20.68,10.9,6.39,12.13-4.82,5.37-11.05-5.18-4.79-11.1-8.56-16.73-12.57-1.76-1.24-8.32-5.57-4-6.86,2-.58,7,3,8.64,3.88,6,3.28,10.2,7.83,15.64,11.89,3.54,2.65,20.58,8.91,16-.37-2.28-4.64-12.51-7.85-16.54-11-1.83-1.43-7.7-4.25-11.58-6.67a2,2,0,0,1,1-3.66c4.29-.21,8.52.17,12.28,2.68,5.49,3.66,4.41,9.3,11.71,10.88,5.72,1.23,11.14-.25,6.7-6.28-2.92-4-9.25-6.51-13.48-8.77-2.78-1.48-10.55-2.74-12.58-4.92-5.2-5.61,6.75-1.77,9.23-1,4,1.24,29.87,11.31,28.14-.67-.86-6-15.11-4.18-23-4.23a2,2,0,0,1-1-3.67c8-4.83,21.16-1,27.7-6.68s-2.15-6.62-6.94-5.65c-3.37.68-9.45,5.06-13.69,5.71a2,2,0,0,1-1.86-3.15c3.18-4.21,9.39-9.21,12.68-12,4.56-3.79,18-5.18,18.51-12.17s-8-1.58-12.67,2c-1,.8-1.88,1.52-2.4,2-2,1.78-5.64,6.6-9.16,9.92a2,2,0,0,1-3.1-2.39A99.06,99.06,0,0,1,448.13,260c3.14-3.92,16.46-10.7,17-15.29C466.15,235.28,448.2,242.92,445.13,245.29Z"/><path class="cls-18" d="M444.86,203.85c-7,5.52-13.05,7.92-22,8.05-6.42.09-11.72-2.84-17.46-2.29a2.25,2.25,0,0,0-.55,4.35,32.05,32.05,0,0,0,9.4,1.39c3.83.09,13.29-.32,8,6.84-5.17,7-16.52-.58-25.21-3.75a2.24,2.24,0,0,0-1.73,4.13c7.61,3.4,21,4.92,19.29,14-1.93,10.58-19.42-3.71-23.27-6.76-2.43-1.94-13.1-11.81-12.75-3.74.2,4.55,9.75,8.47,13.07,10s11.47,2.13,13.22,5.48c2.95,5.63-4.06,6.35-7.82,5.79-8.5-1.25-14.61-14.15-22.9-16.18a2.25,2.25,0,0,0-2.43,3.35,26.56,26.56,0,0,0,6.7,7.74c3.85,3,8.31,3.17,11.88,5.56,9.67,6.52-6.05,8-12.08,2.3-2.71-2.56-13.13-19-19-13.28l0,0a3.89,3.89,0,0,0-.34.36l-.09.11a.1.1,0,0,0,0,0c-4.09,5.69,21.48,20.37,25.12,22.45,2.71,1.53,5.67.63,8.59,1a2.26,2.26,0,0,1,1.95,2c1.89,14.46-18.23.83-22.63-3-3.77-3.32-8.34-7.89-13.11-9.56s-12.85-1.8-9.14,4.39c2.07,3.44,10.52,9.14,14,11.53,4.36,3,9,3.95,13.7,6.05,3.79,1.69,11.06,6.86,4.79,10-3.15,1.6-10-1.75-12.84-3.23-8.48-4.49-15.45-20-26.13-19.69a2.24,2.24,0,0,0-2.11,2.86c2.42,8,17.1,15.27,22.9,19.2a29.41,29.41,0,0,0,7.14,3.61c2.57.82,6.34-.2,8.67,1.09,7.16,3.94,1.18,9-4.07,9.75-11,1.62-17.55-6.06-22.05-14.74-2.32-4.5-12.49-20.93-16.65-9.83-4,10.72,10.17,11,15.27,15.81,3.56,3.38,3.47,8.19,6.85,11.75,2.91,3.08,7.41,3.74,8.89,8.27,1.53,4.7,0,7.93-5,7.22-4.43-.62-7.47-5.66-9.55-9.18-2.51-4.25-3.22-9.94-6.77-13.5-2.34-2.35-9.29-5.48-11.52-1.28s8.61,17.3,11.11,20.3c6.4,7.67,10.89,9.81,19.64,11.95a2.28,2.28,0,0,1,1.69,1.86c1.13,7.09-7.45,7.43-12.66,4.6-6-3.3-9.23-9.28-12.11-15.25-1.74-3.6-5.61-14.87-10.53-14-6.94,1.24-4.33,10.84-1.14,13.25,5.18,3.91,8.83,3.38,11.44,10.79,1.64,4.69,3.93,10.68,3.22,15.78-.93,6.7-5.73,8.46-9.14,1.64-2.48-5-.8-10.79-1.87-16.19-1.21-6.15-7.66-13-13.34-6.37-2.79,3.26-3.48,10.35-3.65,15.46a2.25,2.25,0,0,1-2.78,2.1c-1.29-.33-2.83-.7-4.22-1-.34-.08-.67-.14-1-.2a2.26,2.26,0,0,1-1.58-3.17,107.26,107.26,0,0,1,5.68-10.12c.95-1.61,1.91-3.26,2.82-5a.31.31,0,0,1,.05-.1c2.2-4.23,2.7-6,1-7.77a16.49,16.49,0,0,0-3.33-2.47c-3.07-1.92-19.35-9.85-10.33-14.22,6.1-2.95,11,7.38,15.59,8.83.28.09.54.16.79.22,6.9,1.74,6.55-4.75,3.73-9.26a10.53,10.53,0,0,0-.84-1.22c-4.08-5.11-10.49-7-16.51-8.49-4.06-1-12.09-1.76-11.61-8,.69-9,12.21-1.75,15.56,1.26,3.81,3.41,11.71,16.82,14,8.26,3.76-14.17-19.81-21.41-20.06-34.65a2.24,2.24,0,0,1,2.67-2.2c4.48.89,6.43,6.79,8.87,10.28,1.67,2.39,8.81,13.65,11.17,13.88,4.56.44,5.36-7.68,4.65-11.25-1.76-9-11.78-11.56-18.78-15.26-8.68-4.6-9.59-15.79,1.64-11.35,7.88,3.11,11.67,12.52,17.22,18.27,8.46,8.76,5.74-3.39,3.23-8.89-2.37-5.17-7.05-9.54-11.71-12.82-7.07-5-20-4-21.14-15.06-1.73-16.5,27.31,8.66,30.84,12.58,3.33,3.69,3.89,8.71,5.76,13,2,4.6,6.38,8.27,8.26,1.39,1.15-4.25-2.54-8.28-4.82-11.2-5.42-7-16.1-12.9-18.64-21.68-4-13.73,8.67-12,13.62-2.81,3.8,7,6.29,14.56,9.11,21.85.88,2.27,3.8,10.67,6.4,6.32,1.19-2-1.32-8.54-1.84-10.55-1.92-7.52-5.75-13.37-8.68-20.46-1.92-4.63-4-25.05,4.87-17.46,4.45,3.79,5.12,15.9,7.46,21.2,1.06,2.4,2.52,9.63,4.1,14.56a2.24,2.24,0,0,0,4.27,0c1.42-4.64,2.19-9.39.49-14.21-2.48-7-9-7.43-8.67-15.87.24-6.61,3.37-12.14,8.75-5.6,3.53,4.3,4.56,12,5.86,17.23.85,3.46.06,12.33,1.89,15.16,4.7,7.26,3.82-6.91,3.68-9.84-.24-4.78-4.08-35.9,8.58-30.67,6.32,2.61.36,17.74-1.78,26.43a2.24,2.24,0,0,0,3.74,2.15c7.53-7.46,7-22.9,15-28.5s6.67,4.2,4.27,9.18c-1.68,3.5-8.19,8.95-10.07,13.42a2.24,2.24,0,0,0,2.93,2.92c5.5-2.32,12.72-7.73,16.64-10.58,5.43-3.94,10.71-18.31,18.51-16.9s-.49,9.21-5.75,13.33c-1.16.91-2.18,1.63-2.84,2.08-2.5,1.66-8.81,4.35-13.43,7.28a2.24,2.24,0,0,0,1.77,4.07,113.08,113.08,0,0,0,16.86-6.06c5.17-2.36,16.32-15.07,21.49-14.36C461.7,183.59,448.32,201.15,444.86,203.85Z"/><path class="cls-19" d="M373.27,279.12h0c-.2.18-.41.35-.62.52Z"/><path class="cls-19" d="M327.92,334.48h0l-.23.42Z"/><path class="cls-19" d="M316.7,358.84c.21-.56.43-1.11.64-1.66l.6-1.51c.52-1.3,1.05-2.58,1.58-3.85a51.57,51.57,0,0,0,7.66-.77,1.9,1.9,0,0,0-.57-3.76c-2.08.23-3.89.34-5.27.38.52-1.14,1.05-2.28,1.58-3.4l.72-1.51q1.35-2.77,2.76-5.45l.58-1.09.94-1.73h0a52.22,52.22,0,0,0,7.14,1.68,1.91,1.91,0,0,0,.72-3.74c-2.44-.56-4.44-1.15-5.81-1.59.63-1.11,1.28-2.2,1.93-3.28l.8-1.32c.38-.6.75-1.2,1.12-1.8l.75-1.18c.24-.37.47-.74.71-1.1s.43-.67.66-1l.6-.91c.29-.45.59-.88.88-1.32h0a52.36,52.36,0,0,0,9.69,2.54,1.9,1.9,0,0,0,.73-3.73,62.86,62.86,0,0,1-7.76-2.26l-.5.33c.3-.42.59-.85.89-1.26l.94-1.3c.35-.48.7-1,1.06-1.42.08-.12.18-.24.27-.37l.84-1.11.12-.15.51-.68c.73-.94,1.46-1.88,2.19-2.8.35-.42.69-.85,1-1.27s.65-.79,1-1.19l.74-.9.89-1.06,1.21-1.41.09-.1,1-1.21.36-.4.81-.91,1.27-1.4c.22-.24.44-.49.67-.73l.3-.33c.22-.23.44-.46.65-.7l.23-.24,1-1c1-1.05,2-2.07,3-3.08l1.83-.31a33.19,33.19,0,0,0,15,3.45,1.9,1.9,0,0,0,.32-3.77,35.15,35.15,0,0,1-12.05-4.35c1.62-1.52,3.23-3,4.83-4.38l.79-.68c.48-.41.95-.83,1.43-1.23l.89-.11a33.29,33.29,0,0,0,15.86,3.87,1.9,1.9,0,0,0,.33-3.77A35.34,35.34,0,0,1,378,275.22h0l1.32-1,1-.8c.53-.41,1.05-.81,1.58-1.2l1.29-1c1.71-1.27,3.39-2.47,5-3.62h0a28.09,28.09,0,0,0,7.9,2,1.9,1.9,0,0,0,.63-3.74,28.31,28.31,0,0,1-4-1.28l.78-.51.68-.43c.93-.6,1.86-1.18,2.76-1.74l1.85-1.13.64-.38.95-.56c1.74-1,3.4-2,5-2.8l.55-.3c1.09-.59,2.14-1.13,3.12-1.64l.93-.47c1.83-.91,3.43-1.67,4.78-2.27l.34-.15.93-.41.28-.13,1.42-.58L418,251c.67-.27,1.13-.43,1.38-.5q-2,.45-4,1a120.57,120.57,0,0,1,11.92-3.85,5.25,5.25,0,0,1,0,1.19c-1.42,19.13-4,46.18-27.56,57.43-13.71-2-37.45-4.5-48,.53l42.76,6.55c-4.47,5.88-8.76,11.11-12.39,15.37a90.86,90.86,0,0,1-62.3,31.76c-1.54.11-2.83.17-3.84.19.2-.55.41-1.11.62-1.66Z"/><path class="cls-20" d="M313.64,353.55c.7-1.52,1.39-3,2.1-4.51h0C315,350.53,314.34,352,313.64,353.55Z"/><path class="cls-20" d="M372.44,272.5l-.91.71.91-.72Z"/><path class="cls-20" d="M342.92,302.84c-.75,1-1.5,2-2.24,3.05C341.42,304.86,342.17,303.84,342.92,302.84Z"/><path class="cls-20" d="M409.87,253l2.33-.7Z"/><path class="cls-20" d="M395.76,258.41q-2.31,1.06-4.57,2.21c1.5-.77,3-1.51,4.57-2.21Z"/><path class="cls-20" d="M350.65,293.23q1.92-2.24,3.9-4.36C353.23,290.29,351.94,291.75,350.65,293.23Z"/><path class="cls-20" d="M349.13,295h0l1.53-1.79C350.14,293.82,349.63,294.42,349.13,295Z"/><path class="cls-20" d="M332.67,317.81c-1.05,1.66-2.07,3.34-3.09,5.05,1-1.71,2-3.39,3.08-5.06Z"/><path class="cls-20" d="M335.57,313.29h0q2.49-3.8,5.11-7.4Q338.07,309.51,335.57,313.29Z"/><path class="cls-20" d="M318.08,344.17c.26-.54.53-1.06.79-1.59l-.78,1.59Z"/><path class="cls-20" d="M325.7,329.58c1.27-2.27,2.55-4.5,3.87-6.7Q327.61,326.18,325.7,329.58Z"/><path class="cls-19" d="M415.42,251.43q-.8.19-1.59.42l-1.63.46-2.33.7c-.78.24-1.55.49-2.32.75l-1.15.39q-2.85,1-5.63,2.1a8.44,8.44,0,0,1-.4-5.41,1.5,1.5,0,0,0-2.81-1,17.54,17.54,0,0,0-1.8,8.53c-1.54.7-3.07,1.44-4.57,2.21-.5.25-1,.51-1.49.78s-1,.53-1.48.8l-1.47.81c-.46.26-.92.52-1.37.79l-1.52.9c4.36-4.62,9.47-16.36,12.45-23.83a59.6,59.6,0,0,1,28.45,3.5,4.15,4.15,0,0,1,2.59,3.2,118.35,118.35,0,0,0-11.92,3.86Z"/><path class="cls-19" d="M381.13,266.4l-.26.17-1,.62-1.19.8c-.25.16-.48.32-.72.49l-.87.6c-.25.17-.5.34-.74.52l-.05,0a28,28,0,0,1,.56-5.74,1.5,1.5,0,0,0-2.88-.83,24.47,24.47,0,0,0-1.58,9.43l-.91.72c-.31.23-.61.47-.91.71l-.91.73-.9.73-.89.74-.89.75c-.59.5-1.18,1-1.76,1.53a25.73,25.73,0,0,1-1-7.33,1.5,1.5,0,0,0-3-.21,24.69,24.69,0,0,0,.64,10.62l-.71.67-.21.2-.63.61-.35.34c-.47.46-.94.92-1.4,1.39l-.82.82-.81.83c-.27.27-.54.55-.8.83-.54.56-1.07,1.13-1.6,1.7q-2,2.13-3.9,4.36L349.12,295a37.24,37.24,0,0,1-2.32-13.68,1.5,1.5,0,0,0-3-.27,40.47,40.47,0,0,0,1,19.23c-.22.28-.44.56-.65.85l-.33.43-.52.68-.44.58c-.75,1-1.5,2-2.24,3.05q-2.62,3.62-5.11,7.4a71.84,71.84,0,0,1-2.5-13.12,1.5,1.5,0,0,0-3,.07,49.82,49.82,0,0,0,2.59,17.56c-1,1.67-2.07,3.35-3.08,5.06v0c-1.32,2.2-2.6,4.43-3.87,6.7l-1.11,2c-1.39-6.68-1.91-35.52-2.08-51.17,17-17.52,41.35-33.19,65.43-38.25l-5.18,23.2c-.39.24-.78.48-1.16.73Z"/><path class="cls-19" d="M324.52,331.73l-.82,1.52-.83,1.54-.81,1.54-.81,1.55c-.27.51-.53,1-.8,1.55-.53,1.05-1.06,2.09-1.58,3.15-.26.53-.53,1.05-.79,1.59a55.11,55.11,0,0,1-6.59-16,1.51,1.51,0,0,0-2.94.64c1.58,8.17,5.36,16.51,7.19,20.24-.71,1.49-1.4,3-2.1,4.51-.35.75-.69,1.51-1,2.27l-1,2.3a46.2,46.2,0,0,1-4.85-8.64c-8.29-18.89-5.68-40.52,5.88-57.34C313.66,314.7,323.2,329.75,324.52,331.73Z"/><path class="cls-19" d="M324.52,331.73l-.82,1.52-.83,1.54-.81,1.54-.81,1.55c-.27.51-.53,1-.8,1.55-.53,1.05-1.06,2.09-1.58,3.15-.26.53-.53,1.05-.79,1.59a58.71,58.71,0,0,1-6.7-15.47,1.6,1.6,0,0,0-3.11.76c1.7,7.88,5.64,15.85,7.47,19.58-.71,1.49-1.4,3-2.1,4.51-.35.75-.69,1.51-1,2.27l-1,2.3a46.2,46.2,0,0,1-4.85-8.64c-8.29-18.89-5.68-40.52,5.88-57.34C313.66,314.7,323.2,329.75,324.52,331.73Z"/><path class="cls-21" d="M313.64,353.55c.7-1.51,1.4-3,2.1-4.51h0c-2.38-4.86-8.09-17.57-7.89-27.51a1.13,1.13,0,0,1,2.24-.14c1,6.12,3.2,15.32,8,22.78h0l.78-1.59c.52-1.06,1.05-2.1,1.58-3.15.27-.52.53-1,.8-1.55l.81-1.55.81-1.54.83-1.54.82-1.52s.05-.08.07-.13l1.11-2q1.91-3.4,3.87-6.7v0c1-1.71,2-3.39,3.09-5.05h0a48.65,48.65,0,0,1-2.07-23,1.13,1.13,0,0,1,2.24.16,67.88,67.88,0,0,0,2.74,18.32h0q2.51-3.78,5.11-7.4c.74-1,1.49-2.05,2.24-3.05l.44-.58.52-.68.33-.43.3-.39a1.14,1.14,0,0,0,.19-1,40,40,0,0,1,0-22.23,1.12,1.12,0,0,1,2.2.39c-.34,6.34.26,12.13,2.23,17.09h0c.5-.61,1-1.21,1.52-1.8,1.29-1.48,2.58-2.94,3.9-4.36.53-.57,1.06-1.14,1.6-1.7.26-.28.53-.56.8-.83l.81-.83.82-.82c.46-.47.93-.93,1.4-1.39l.35-.34.63-.61.21-.2.23-.21a1.12,1.12,0,0,0,.31-1.09,23.78,23.78,0,0,1,.43-13.55,1.12,1.12,0,0,1,2.19.44,32.24,32.24,0,0,0,.46,8.84,1.13,1.13,0,0,0,1.84.63l.4-.34.89-.75.89-.74.9-.73.91-.73c.3-.24.6-.48.91-.71l.91-.71h0a23.72,23.72,0,0,1,3.19-12.74,1.13,1.13,0,0,1,2.05.89,32.14,32.14,0,0,0-1.34,9l.05,0c.24-.18.49-.35.74-.52l.87-.6c.24-.17.47-.33.72-.49l1.19-.8,1-.62.26-.17.47-.29c.38-.25.77-.49,1.16-.73l1.1-.68,1.52-.9c.45-.27.91-.53,1.37-.79l1.47-.81c.49-.27,1-.54,1.48-.8s1-.53,1.49-.78q2.26-1.14,4.57-2.21h0a16.85,16.85,0,0,1,3.15-10.69,1.13,1.13,0,0,1,2,1,12.75,12.75,0,0,0-.55,6.34,1.12,1.12,0,0,0,1.5.74c1.5-.59,3-1.15,4.57-1.68l1.15-.39c.77-.26,1.54-.51,2.32-.75l2.33-.7,1.63-.46q.8-.22,1.59-.42h0q2-.51,4-1c-.25.07-.71.23-1.38.5l-.28.11-1.42.58-.28.13-.93.41-.34.15c-1.35.6-3,1.36-4.78,2.27l-.93.47c-1,.51-2,1-3.12,1.64l-.55.3c-1.56.84-3.22,1.78-5,2.8l-.95.56-.64.38L397,261.89c-.9.56-1.83,1.14-2.76,1.74l-.68.43-.78.51A37.11,37.11,0,0,0,404,266.89a1.13,1.13,0,0,1,.17,2.23,26.63,26.63,0,0,1-15.87-1.52h0c-1.65,1.15-3.33,2.35-5,3.62l-1.29,1c-.53.39-1.05.79-1.58,1.2l-1,.8h0l.16,1.86c5.2,2.73,11.59,3.8,16.18,4.21a1.13,1.13,0,0,1,.14,2.22,32.38,32.38,0,0,1-22.55-3.36h0l-.62.52-1.23,1.07-.79.68q-1.85,1.62-3.71,3.34a1.13,1.13,0,0,0,.22,1.82c5.25,2.85,11.79,3.94,16.47,4.36a1.13,1.13,0,0,1,.15,2.22,32,32,0,0,1-20.59-2.37l-3.09.57c-.81.82-1.62,1.65-2.42,2.5l-1,1-.22.23c-.22.24-.45.48-.67.73l-.29.31c-.23.24-.45.49-.67.73l-1.27,1.4-.81.91-.36.4-1,1.21-.09.1-1.21,1.41-.89,1.06-.74.9c-.33.4-.66.79-1,1.19s-.68.85-1,1.27c-.73.92-1.46,1.86-2.19,2.8l-.51.68-.12.15-.84,1.11c-.09.13-.19.25-.27.37-.36.47-.71.94-1.06,1.42l-.94,1.3c-.3.41-.59.84-.89,1.26l.5-.33a68.26,68.26,0,0,0,20.83,3.93,1.13,1.13,0,0,1,.15,2.25,48.69,48.69,0,0,1-22.82-2.44l-1.31.44c-.14.19-.27.39-.4.59l-.6.91c-.23.34-.44.67-.66,1s-.47.73-.71,1.1l-.75,1.18c-.37.6-.74,1.2-1.12,1.8l-.8,1.32-1.22,2.05a1.13,1.13,0,0,0,.65,1.65,67.29,67.29,0,0,0,17.5,2.84,1.13,1.13,0,0,1,.16,2.24,48.25,48.25,0,0,1-21.07-1.85h0l-.23.42c-.24.44-.48.88-.71,1.32l-.58,1.09q-1.41,2.67-2.76,5.45l-.72,1.51-.81,1.72a1.13,1.13,0,0,0,1.1,1.59,66.34,66.34,0,0,0,16.26-3,1.13,1.13,0,0,1,.86,2.08,48.09,48.09,0,0,1-20.08,5.13,1.13,1.13,0,0,0-1,.68c-.45,1.06-.88,2.12-1.31,3.19l-.6,1.51c-.21.55-.43,1.1-.64,1.66l0,.09-.36.95a1.13,1.13,0,0,1-1,.73h-1.19a1.1,1.1,0,0,1-.85-.39c-.43-.52-.85-1-1.26-1.58a1.14,1.14,0,0,1-.13-1.14l.76-1.69C313,355.06,313.29,354.3,313.64,353.55Z"/><path class="cls-17" d="M36.36,245.29c6.26,4.83,9.62,9.46,11.69,17.13,1.47,5.47.12,10.65,1.84,15.45a2,2,0,0,0,3.85-.48,28.75,28.75,0,0,0-.86-8.36c-.76-3.29-3.17-11.31,4.12-8.32,7.09,2.91,3.1,14.27,2.27,22.41a2,2,0,0,0,3.92.58c1.25-7.26-.35-19,7.81-19.58,9.49-.65,1.06,17.44-.72,21.4-1.13,2.51-7.27,13.8-.43,11.74,3.86-1.15,5.13-10.19,5.69-13.36s-.67-10.29,1.82-12.52c4.17-3.75,6.32,2.1,6.66,5.44.78,7.55-8.94,15.6-8.88,23.14a2,2,0,0,0,3.4,1.35,23.34,23.34,0,0,0,5.17-7.42c1.73-3.95.91-7.81,2.18-11.39,3.48-9.7,8.15,3.44,4.6,9.84-1.61,2.88-13.38,15.39-7.24,19.2l0,0a3.41,3.41,0,0,0,.38.21l.11.05a.06.06,0,0,0,0,0c5.77,2.28,12.78-22.83,13.77-26.4.72-2.65-.7-5-1-7.57a2,2,0,0,1,1.26-2.1c12-4.76,4.68,15.43,2.32,20-2,3.95-4.94,8.86-5.33,13.32s1.25,11.39,5.75,6.87c2.5-2.52,5.54-11,6.83-14.49,1.61-4.39,1.43-8.54,2.2-13.05.62-3.62,3.47-11,7.56-6.3,2.06,2.35.69,9,0,11.7-2,8.25-13.77,17.59-11.19,26.67a2,2,0,0,0,2.91,1.19c6.29-3.81,9.36-18,11.46-23.8a25.47,25.47,0,0,0,1.54-6.9c.15-2.37-1.55-5.39-1-7.67,1.82-7,7.44-3,9.24,1.37,3.78,9.07-1.37,16.36-7.83,22.1-3.34,3-15.21,15.26-4.79,16.4,10,1.1,7.17-11.1,10.21-16.52,2.13-3.79,6.26-4.76,8.58-8.42,2-3.17,1.59-7.17,5.15-9.42s6.8-1.71,7.27,2.72c.44,3.92-3.22,7.63-5.78,10.18-3.1,3.07-7.82,4.92-10.09,8.74-1.5,2.51-2.67,9.14,1.41,10.15s12.94-11.15,15-13.95c5.18-7.14,6-11.46,6-19.42a2,2,0,0,1,1.22-1.85c5.82-2.51,8,4.77,6.69,9.84-1.51,5.87-5.94,9.93-10.42,13.69-2.71,2.28-11.52,8.05-9.7,12.07,2.58,5.67,10.24,1.35,11.6-1.9,2.22-5.29,1-8.31,6.76-12.15,3.66-2.43,8.28-5.7,12.82-6.2,5.93-.66,8.49,3.07,3.38,7.47-3.74,3.22-9.06,3-13.46,5.13-5,2.37-9.44,9.39-2.55,12.81,3.4,1.68,9.63.74,14-.23a2,2,0,0,1,2.4,1.92c0,1.17,0,2.58.07,3.83,0,.31,0,.61,0,.89a2,2,0,0,1-2.37,2,93.14,93.14,0,0,1-9.91-2.65c-1.59-.47-3.2-.94-4.9-1.33l-.1,0c-4.1-.95-5.71-1-6.87.83a15.13,15.13,0,0,0-1.4,3.39c-1,3-4.22,18.72-9.93,11.95-3.86-4.59,3.93-11,4.17-15.28,0-.26,0-.5,0-.73,0-6.28-5.5-4.57-8.75-1.18a11.28,11.28,0,0,0-.86,1c-3.49,4.61-3.73,10.51-3.68,16,0,3.7,1.13,10.74-4.34,11.69-7.86,1.37-4.16-10.08-2.31-13.6,2.09-4,11.86-13.7,4-13.78-13-.14-14,21.63-25.32,24.72a2,2,0,0,1-2.46-1.8c-.21-4,4.42-7,6.88-9.84,1.68-2,9.77-10.52,9.45-12.59-.61-4-7.74-2.92-10.64-1.53-7.3,3.46-7.35,12.61-9,19.41-2,8.43-11.44,11.64-10.08,1.06,1-7.42,8.19-12.72,11.9-18.73,5.67-9.15-4.15-4.17-8.31-.83-3.92,3.16-6.64,8.12-8.44,12.82-2.72,7.14,1,18-8.3,21.39-13.76,5.08,1.48-25.28,4.06-29.15,2.44-3.66,6.62-5.23,9.9-7.77,3.5-2.72,5.69-7.27-.61-7.38-3.9-.07-6.54,4-8.55,6.57-4.79,6.16-7.55,16.6-14.51,20.68-10.9,6.39-12.14-4.82-5.37-11.05,5.18-4.79,11.1-8.56,16.73-12.57,1.75-1.24,8.31-5.57,4-6.86-2-.58-7,3-8.64,3.88-6,3.28-10.2,7.83-15.63,11.89-3.55,2.65-20.58,8.91-16-.37,2.28-4.64,12.51-7.85,16.54-11,1.82-1.43,7.7-4.25,11.58-6.67a2,2,0,0,0-1-3.66c-4.29-.21-8.53.17-12.29,2.68-5.49,3.66-4.41,9.3-11.71,10.88-5.71,1.23-11.13-.25-6.69-6.28,2.91-4,9.25-6.51,13.48-8.77,2.78-1.48,10.55-2.74,12.57-4.92,5.2-5.61-6.74-1.77-9.22-1-4,1.24-29.87,11.31-28.14-.67.85-6,15.11-4.18,23-4.23a2,2,0,0,0,1-3.67c-8-4.83-21.15-1-27.69-6.68s2.15-6.62,6.94-5.65c3.37.68,9.45,5.06,13.69,5.71a2,2,0,0,0,1.86-3.15c-3.19-4.21-9.39-9.21-12.69-12-4.56-3.79-18-5.18-18.5-12.17s8-1.58,12.67,2c1,.8,1.87,1.52,2.4,2,2,1.78,5.64,6.6,9.16,9.92a2,2,0,0,0,3.1-2.39A100,100,0,0,0,33.36,260c-3.15-3.92-16.46-10.7-17-15.29C15.34,235.28,33.29,242.92,36.36,245.29Z"/><path class="cls-18" d="M49.69,193.11c7,5.52,13,7.91,22,8,6.42.09,11.72-2.84,17.46-2.29a2.25,2.25,0,0,1,.55,4.35,32.45,32.45,0,0,1-9.41,1.39c-3.83.08-13.29-.33-8,6.84,5.17,7,16.52-.58,25.2-3.76a2.25,2.25,0,0,1,1.74,4.14c-7.61,3.39-21,4.91-19.3,14,1.93,10.58,19.43-3.7,23.27-6.75,2.44-1.94,13.11-11.82,12.76-3.75-.2,4.55-9.75,8.47-13.07,10s-11.47,2.12-13.22,5.48c-3,5.62,4.06,6.34,7.82,5.79,8.5-1.26,14.61-14.16,22.89-16.19a2.25,2.25,0,0,1,2.43,3.36,26.33,26.33,0,0,1-6.69,7.73c-3.85,3-8.31,3.18-11.88,5.57-9.67,6.51,6,8,12.07,2.29,2.71-2.56,13.14-19,19-13.28l0,0c.12.12.23.23.34.36l.09.11a.09.09,0,0,1,0,.06c4.1,5.69-21.47,20.37-25.11,22.45-2.71,1.53-5.67.62-8.59,1a2.26,2.26,0,0,0-2,2c-1.89,14.45,18.23.83,22.63-3,3.76-3.32,8.33-7.9,13.11-9.56s12.84-1.81,9.14,4.39c-2.07,3.44-10.52,9.14-14,11.52-4.36,3-9,3.95-13.7,6.06-3.79,1.69-11.06,6.86-4.79,10,3.14,1.61,10-1.74,12.84-3.22,8.48-4.5,15.45-20,26.13-19.69a2.24,2.24,0,0,1,2.11,2.85c-2.43,8-17.11,15.28-22.9,19.2a29.23,29.23,0,0,1-7.14,3.61c-2.57.82-6.34-.19-8.68,1.1-7.15,3.94-1.18,9,4.08,9.75,11,1.61,17.55-6.06,22-14.74,2.32-4.5,12.49-20.93,16.64-9.83,4,10.72-10.16,11-15.26,15.8-3.56,3.39-3.48,8.19-6.85,11.76-2.91,3.08-7.41,3.74-8.89,8.27-1.53,4.7,0,7.92,5,7.22,4.42-.62,7.47-5.66,9.55-9.19,2.5-4.24,3.22-9.94,6.77-13.5,2.34-2.34,9.28-5.47,11.52-1.27s-8.61,17.3-11.12,20.3c-6.39,7.67-10.88,9.81-19.63,11.95a2.27,2.27,0,0,0-1.69,1.86c-1.13,7.08,7.45,7.43,12.66,4.59,6-3.29,9.23-9.27,12.11-15.24,1.74-3.61,5.61-14.87,10.52-14,6.94,1.24,4.34,10.84,1.15,13.25-5.18,3.9-8.83,3.38-11.44,10.79-1.64,4.69-3.94,10.67-3.22,15.78.93,6.69,5.73,8.46,9.14,1.63,2.48-5,.79-10.78,1.86-16.18,1.22-6.15,7.67-13,13.35-6.37,2.78,3.25,3.48,10.35,3.65,15.46a2.24,2.24,0,0,0,2.78,2.09c1.29-.32,2.83-.7,4.22-1l1-.2a2.25,2.25,0,0,0,1.59-3.16A106,106,0,0,0,180.85,311c-1-1.61-1.92-3.26-2.82-5l-.05-.09c-2.2-4.23-2.7-6-1-7.77a16.67,16.67,0,0,1,3.32-2.47c3.08-1.92,19.36-9.85,10.34-14.22-6.1-2.95-11,7.37-15.59,8.83l-.8.22c-6.89,1.73-6.54-4.76-3.73-9.27a11.87,11.87,0,0,1,.85-1.21c4.08-5.11,10.48-7,16.51-8.5,4.06-1,12.08-1.75,11.61-8-.69-9-12.22-1.75-15.56,1.26-3.81,3.41-11.72,16.83-14,8.27-3.76-14.17,19.81-21.41,20.06-34.66a2.23,2.23,0,0,0-2.67-2.19c-4.49.89-6.43,6.79-8.87,10.28-1.67,2.38-8.82,13.65-11.17,13.87-4.56.44-5.36-7.68-4.65-11.24,1.76-9,11.78-11.57,18.78-15.27,8.68-4.59,9.59-15.78-1.64-11.34-7.88,3.1-11.67,12.52-17.22,18.26-8.46,8.77-5.74-3.39-3.23-8.88,2.37-5.18,7.05-9.54,11.71-12.82,7.07-5,20-4,21.14-15.07,1.73-16.5-27.31,8.67-30.84,12.58-3.33,3.7-3.89,8.72-5.76,13-2,4.61-6.38,8.27-8.26,1.4-1.16-4.26,2.54-8.28,4.82-11.2,5.42-7,16.1-12.91,18.64-21.68,4-13.74-8.67-12-13.62-2.82-3.8,7-6.3,14.56-9.12,21.85-.87,2.27-3.79,10.67-6.4,6.33-1.19-2,1.33-8.54,1.85-10.55,1.92-7.52,5.74-13.37,8.68-20.47,1.92-4.62,4-25-4.87-17.46-4.45,3.8-5.13,15.91-7.47,21.21-1,2.4-2.51,9.62-4.09,14.55a2.24,2.24,0,0,1-4.27,0c-1.43-4.65-2.19-9.39-.49-14.21,2.48-7.05,9-7.43,8.67-15.88-.25-6.61-3.37-12.14-8.75-5.59-3.54,4.3-4.56,11.95-5.86,17.22-.86,3.47-.06,12.34-1.9,15.16-4.7,7.27-3.82-6.9-3.68-9.83.24-4.78,4.09-35.9-8.57-30.67-6.32,2.6-.37,17.74,1.78,26.43a2.24,2.24,0,0,1-3.74,2.15c-7.53-7.47-7-22.91-15-28.51s-6.67,4.2-4.27,9.19c1.68,3.5,8.18,9,10.07,13.42a2.24,2.24,0,0,1-2.94,2.92c-5.49-2.33-12.71-7.73-16.64-10.58C74.68,178,69.41,163.6,61.6,165s.5,9.21,5.76,13.33c1.16.91,2.18,1.63,2.84,2.07,2.49,1.67,8.8,4.35,13.43,7.29a2.24,2.24,0,0,1-1.77,4.06A113,113,0,0,1,65,185.72c-5.17-2.36-16.32-15.07-21.49-14.36C32.85,172.84,46.22,190.4,49.69,193.11Z"/><path class="cls-19" d="M93,259.09h0l.77.65Z"/><path class="cls-19" d="M149.63,328.25h0c.1.17.19.35.29.53Z"/><path class="cls-19" d="M163.65,358.69c-.27-.7-.53-1.39-.8-2.08l-.75-1.88c-.64-1.62-1.31-3.23-2-4.81a65.49,65.49,0,0,1-9.57-1c-3-.53-2.32-5,.72-4.69,2.6.28,4.86.41,6.58.47-.65-1.43-1.3-2.85-2-4.25l-.9-1.88q-1.69-3.47-3.45-6.81l-.72-1.36-1.17-2.17h0a64.87,64.87,0,0,1-8.92,2.1,2.38,2.38,0,0,1-.9-4.67c3.05-.7,5.56-1.44,7.26-2-.79-1.39-1.6-2.76-2.41-4.11-.33-.55-.67-1.1-1-1.64-.46-.76-.93-1.51-1.39-2.26-.31-.49-.62-1-.94-1.47s-.58-.92-.88-1.37l-.82-1.26-.76-1.15c-.36-.55-.74-1.1-1.1-1.64h0A66.26,66.26,0,0,1,125.64,312a2.38,2.38,0,0,1-.9-4.67,79.13,79.13,0,0,0,9.68-2.82l.63.41-1.11-1.58-1.18-1.61c-.43-.6-.87-1.19-1.31-1.78l-.34-.46-1.05-1.39-.15-.19c-.21-.29-.43-.56-.64-.84-.91-1.19-1.83-2.35-2.74-3.5L125.25,292,124,290.47l-.93-1.12L122,288c-.5-.6-1-1.18-1.51-1.77l-.12-.13-1.31-1.5-.45-.51-1-1.14c-.52-.58-1-1.17-1.58-1.74l-.83-.91-.39-.42-.81-.86c-.09-.11-.19-.21-.28-.31l-1.21-1.28q-1.87-2-3.75-3.84l-2.29-.39a41.44,41.44,0,0,1-18.78,4.31,2.38,2.38,0,0,1-.4-4.71,43.82,43.82,0,0,0,15-5.44c-2-1.89-4-3.71-6-5.46l-1-.86-1.79-1.54-1.12-.13a41.46,41.46,0,0,1-19.8,4.84,2.38,2.38,0,0,1-.42-4.72A44.28,44.28,0,0,0,87,254.22h0l-1.65-1.29-1.29-1-2-1.5c-.54-.41-1.08-.82-1.62-1.21-2.13-1.59-4.24-3.1-6.3-4.52h0a35.06,35.06,0,0,1-9.86,2.49,2.38,2.38,0,0,1-.79-4.68,35.65,35.65,0,0,0,5.05-1.59l-1-.63-.86-.55c-1.16-.75-2.32-1.47-3.44-2.17L61,236.15l-.79-.47L59,235c-2.18-1.28-4.26-2.45-6.2-3.5l-.69-.38c-1.36-.73-2.67-1.41-3.9-2l-1.16-.59c-2.28-1.14-4.29-2.09-6-2.84l-.42-.19-1.16-.51-.36-.16c-.67-.28-1.26-.53-1.77-.73L37,223.9c-.84-.33-1.41-.53-1.72-.62,1.68.37,3.33.77,5,1.2a150.32,150.32,0,0,0-14.89-4.81,5,5,0,0,0,0,1.49c3.1,23.14,18.74,49.91,34.42,71.74,17.13-2.49,46.8-5.61,60,.67l-53.42,8.18c5.58,7.35,10.94,13.88,15.48,19.21a113.5,113.5,0,0,0,77.84,39.67c1.92.15,3.53.22,4.8.25l-.78-2.09A.42.42,0,0,1,163.65,358.69Z"/><path class="cls-20" d="M167.47,352.07q-1.31-2.83-2.62-5.63h0C165.73,348.31,166.6,350.18,167.47,352.07Z"/><path class="cls-20" d="M94,250.81l1.14.89L94,250.81Z"/><path class="cls-20" d="M130.89,288.72c.94,1.26,1.88,2.53,2.8,3.81C132.77,291.25,131.83,290,130.89,288.72Z"/><path class="cls-20" d="M47.25,226.47c-1-.31-1.94-.59-2.91-.88Z"/><path class="cls-20" d="M64.88,233.22q2.88,1.32,5.7,2.76c-1.87-1-3.77-1.89-5.7-2.77Z"/><path class="cls-20" d="M121.23,276.72q-2.4-2.79-4.87-5.45Q118.84,273.93,121.23,276.72Z"/><path class="cls-20" d="M123.14,279h0c-.63-.75-1.27-1.5-1.91-2.23C121.87,277.46,122.51,278.21,123.14,279Z"/><path class="cls-20" d="M143.7,307.42c1.31,2.08,2.59,4.18,3.86,6.31q-1.89-3.19-3.86-6.31Z"/><path class="cls-20" d="M140.07,301.78h0q-3.1-4.72-6.38-9.24Q137,297.06,140.07,301.78Z"/><path class="cls-20" d="M161.92,340.35c-.33-.66-.65-1.32-1-2l1,2Z"/><path class="cls-20" d="M152.4,322.13c-1.58-2.83-3.19-5.63-4.83-8.37Q150,317.89,152.4,322.13Z"/><path class="cls-19" d="M40.31,224.49c.67.17,1.33.34,2,.53l2,.57c1,.29,1.95.57,2.91.88s1.94.61,2.9.93l1.43.49c2.38.82,4.73,1.69,7,2.63,1-1.85,1-4.35.51-6.77a1.88,1.88,0,0,1,3.51-1.2,22,22,0,0,1,2.25,10.66c1.93.88,3.83,1.81,5.7,2.77.63.31,1.25.63,1.87,1s1.24.66,1.85,1l1.83,1c.58.33,1.15.65,1.72,1l1.9,1.13c-5.46-5.79-11.84-20.44-15.57-29.79-12.32-1.27-24.4-.07-35.54,4.38a5.22,5.22,0,0,0-3.23,4,149,149,0,0,1,14.9,4.82Z"/><path class="cls-19" d="M83.15,243.2l.33.21,1.2.78,1.49,1,.9.61,1.08.75c.31.21.63.43.93.65l.06,0a34.74,34.74,0,0,0-.7-7.17A1.88,1.88,0,0,1,92,239a30.44,30.44,0,0,1,2,11.79l1.14.89,1.14.89c.38.3.76.6,1.13.91l1.12.91,1.12.93c.37.31.75.62,1.11.94.74.62,1.47,1.26,2.2,1.9a31.62,31.62,0,0,0,1.3-9.15,1.88,1.88,0,0,1,3.74-.26A30.77,30.77,0,0,1,107.2,262l.89.84.26.26c.27.24.53.5.79.76l.44.42c.59.57,1.17,1.15,1.75,1.73l1,1,1,1,1,1c.66.7,1.33,1.4,2,2.12q2.48,2.66,4.87,5.45c.64.73,1.28,1.48,1.91,2.23a46.28,46.28,0,0,0,2.9-17.09,1.88,1.88,0,0,1,3.72-.34,50.65,50.65,0,0,1-1.29,24l.81,1.06.42.54c.22.28.43.56.64.85l.55.72c.94,1.25,1.88,2.53,2.8,3.81q3.27,4.52,6.38,9.24a88.35,88.35,0,0,0,3.13-16.38,1.88,1.88,0,0,1,3.75.08,62.44,62.44,0,0,1-3.25,21.95q2,3.12,3.86,6.31v0c1.64,2.74,3.25,5.54,4.83,8.37.47.84.93,1.68,1.39,2.52,1.74-8.35,2.39-44.37,2.6-63.92-21.22-21.89-51.66-41.47-81.74-47.79l6.47,29,1.45.91Z"/><path class="cls-19" d="M153.88,324.82c.34.63.69,1.26,1,1.9l1,1.91,1,1.93c.34.64.67,1.29,1,1.94s.67,1.29,1,1.94c.67,1.3,1.33,2.61,2,3.94.33.65.65,1.31,1,2a68.3,68.3,0,0,0,8.24-20,1.88,1.88,0,0,1,3.67.8c-2,10.21-6.7,20.64-9,25.29q1.32,2.79,2.62,5.63l1.29,2.85c.43.94.85,1.9,1.28,2.86A58.34,58.34,0,0,0,176.1,347c10.35-23.6,7.08-50.63-7.35-71.63C167.44,303.54,155.53,322.35,153.88,324.82Z"/><path class="cls-19" d="M153.88,324.82c.34.63.69,1.26,1,1.9l1,1.91,1,1.93c.34.64.67,1.29,1,1.94s.67,1.29,1,1.94c.67,1.3,1.33,2.61,2,3.94.33.65.65,1.31,1,2A72.42,72.42,0,0,0,170.29,321a2,2,0,0,1,3.89.94c-2.12,9.85-7.05,19.81-9.33,24.46q1.32,2.79,2.62,5.63l1.29,2.85c.43.94.85,1.9,1.28,2.86A58.34,58.34,0,0,0,176.1,347c10.35-23.6,7.08-50.63-7.35-71.63C167.44,303.54,155.53,322.35,153.88,324.82Z"/><path class="cls-21" d="M167.47,352.07c-.87-1.89-1.74-3.76-2.62-5.63h0c3-6.07,10.11-21.95,9.86-34.36a1.41,1.41,0,0,0-2.8-.18c-1.24,7.65-4,19.13-10,28.45h0l-1-2c-.65-1.33-1.31-2.64-2-3.94-.33-.65-.66-1.3-1-1.94s-.67-1.3-1-1.94l-1-1.93-1-1.91c-.34-.64-.69-1.27-1-1.9l-.09-.17c-.46-.84-.92-1.68-1.39-2.52q-2.37-4.25-4.83-8.37v0c-1.27-2.13-2.55-4.23-3.86-6.31h0a60.74,60.74,0,0,0,2.6-28.73,1.41,1.41,0,0,0-2.8.2,84.58,84.58,0,0,1-3.43,22.88h0q-3.12-4.72-6.38-9.25c-.92-1.28-1.86-2.55-2.8-3.81l-.55-.72c-.21-.29-.42-.57-.64-.85l-.42-.54c-.12-.17-.25-.33-.37-.49a1.39,1.39,0,0,1-.24-1.24,50.12,50.12,0,0,0,0-27.77,1.41,1.41,0,0,0-2.75.49c.43,7.93-.32,15.15-2.79,21.35h0c-.63-.75-1.27-1.5-1.91-2.24q-2.4-2.79-4.87-5.45c-.66-.72-1.33-1.42-2-2.12l-1-1-1-1-1-1c-.58-.58-1.16-1.16-1.75-1.73l-.44-.42c-.26-.26-.52-.52-.79-.76l-.26-.26-.28-.26a1.41,1.41,0,0,1-.4-1.37,29.58,29.58,0,0,0-.53-16.91,1.41,1.41,0,0,0-2.74.54,40.51,40.51,0,0,1-.57,11,1.41,1.41,0,0,1-2.3.79l-.5-.42c-.36-.32-.74-.63-1.11-.94l-1.12-.93-1.12-.91c-.37-.31-.75-.61-1.13-.91l-1.14-.89L94,250.81h0a29.63,29.63,0,0,0-4-15.92A1.41,1.41,0,0,0,87.46,236a39.67,39.67,0,0,1,1.68,11.22l-.06,0c-.3-.22-.62-.44-.93-.65l-1.08-.75-.9-.61-1.49-1-1.2-.78-.33-.21-.58-.37-1.45-.91c-.45-.29-.91-.56-1.37-.84L77.85,240c-.57-.34-1.14-.66-1.72-1l-1.83-1c-.61-.33-1.23-.67-1.85-1s-1.24-.66-1.87-1q-2.82-1.44-5.7-2.76h0a21,21,0,0,0-3.94-13.35,1.41,1.41,0,0,0-2.46,1.28c.76,2.56,1.28,5.54.69,7.92a1.4,1.4,0,0,1-1.87.93c-1.89-.74-3.79-1.43-5.72-2.1l-1.43-.49c-1-.32-1.92-.63-2.9-.93l-2.91-.88-2-.57c-.66-.19-1.32-.36-2-.53h0c-1.65-.43-3.3-.83-5-1.2.31.09.88.29,1.72.62l.35.14c.51.2,1.1.45,1.77.73l.36.16,1.16.51.42.19c1.68.75,3.69,1.7,6,2.84l1.16.59c1.23.63,2.54,1.31,3.9,2l.69.38c1.94,1.05,4,2.22,6.2,3.5l1.19.7.79.47,2.32,1.41c1.12.7,2.28,1.42,3.44,2.17l.86.55,1,.63a46.38,46.38,0,0,1-14,2.9,1.41,1.41,0,0,0-.21,2.79,33.26,33.26,0,0,0,19.82-1.91h0c2.06,1.42,4.17,2.93,6.3,4.52.54.39,1.08.8,1.62,1.21l2,1.5,1.29,1h0l-.2,2.33c-6.5,3.41-14.48,4.74-20.21,5.25a1.41,1.41,0,0,0-.18,2.78c12.55,2.87,23-1.39,28.17-4.2h0l.77.65,1.55,1.33,1,.86c1.54,1.35,3.09,2.73,4.64,4.16a1.42,1.42,0,0,1-.27,2.28c-6.57,3.56-14.74,4.93-20.58,5.45a1.41,1.41,0,0,0-.19,2.78,40,40,0,0,0,25.72-3l3.86.72q1.51,1.53,3,3.11l1.21,1.28.27.29.84.9.37.4.83.91c.53.57,1.06,1.16,1.58,1.74l1,1.14.45.51,1.31,1.5.12.13c.5.59,1,1.17,1.51,1.77l1.11,1.32.93,1.12,1.23,1.49,1.28,1.59c.91,1.15,1.83,2.31,2.74,3.5.21.28.43.55.64.84l.15.19,1.05,1.39.34.46c.44.59.88,1.18,1.31,1.78l1.18,1.61,1.11,1.58-.63-.41a85.09,85.09,0,0,1-26,4.91,1.41,1.41,0,0,0-.2,2.81,60.71,60.71,0,0,0,28.51-3l1.65.55.49.73.76,1.15.82,1.26c.3.45.59.91.88,1.37s.63,1,.94,1.47c.46.75.93,1.5,1.39,2.26.34.54.68,1.09,1,1.64.51.85,1,1.71,1.52,2.57a1.41,1.41,0,0,1-.81,2.06,83.82,83.82,0,0,1-21.87,3.54,1.41,1.41,0,0,0-.19,2.8,60.26,60.26,0,0,0,26.32-2.31h0l.29.53.89,1.65.72,1.36q1.75,3.34,3.45,6.81l.9,1.88c.34.71.67,1.43,1,2.15a1.41,1.41,0,0,1-1.37,2,82.85,82.85,0,0,1-20.32-3.73,1.4,1.4,0,0,0-1.07,2.59,60.19,60.19,0,0,0,25.09,6.41,1.41,1.41,0,0,1,1.25.85c.55,1.32,1.1,2.65,1.63,4l.75,1.88c.27.69.53,1.38.8,2.08a.42.42,0,0,0,0,.1c.15.4.3.79.44,1.19a1.43,1.43,0,0,0,1.3.92h1.48a1.38,1.38,0,0,0,1.06-.49c.54-.64,1.07-1.3,1.58-2a1.4,1.4,0,0,0,.15-1.41c-.31-.71-.62-1.41-.94-2.11Z"/><rect class="cls-19" x="287.58" y="147.24" width="153.57" height="99.97"/><polygon class="cls-22" points="287.58 247.21 441.16 247.21 364.37 197.22 287.58 247.21"/><polygon class="cls-21" points="441.16 147.24 287.58 147.24 364.37 225.96 441.16 147.24"/><path class="cls-23" d="M325.61,99.19v252.9a13.32,13.32,0,0,1-13.32,13.31H169.19a13.32,13.32,0,0,1-13.31-13.31V99.19a13.32,13.32,0,0,1,13.31-13.33h143.1A13.32,13.32,0,0,1,325.61,99.19Z"/><rect class="cls-24" x="167.12" y="98.89" width="147.25" height="237.85"/><rect class="cls-25" x="167.12" y="98.89" width="147.25" height="237.85"/><circle class="cls-21" cx="196.39" cy="314.97" r="12.46"/><path class="cls-26" d="M205.35,316.32v.74h-4V317a1.8,1.8,0,0,0-1.47-1.77,13.91,13.91,0,0,0-7,.06,1.79,1.79,0,0,0-1.45,1.76h-4v-.74a3.18,3.18,0,0,1,2.28-3.05c5.53-1.72,8.55-1.82,13.34,0C204.52,314,205.35,314.91,205.35,316.32Z"/><rect class="cls-26" x="187.04" y="316.97" width="4.86" height="1.03" rx="0.24" transform="translate(378.94 634.97) rotate(180)"/><rect class="cls-26" x="200.89" y="316.97" width="4.86" height="1.03" rx="0.24"/><circle class="cls-27" cx="240.74" cy="314.39" r="14.5"/><path class="cls-26" d="M234.16,308.27l.53-.52,2.84,2.84,0,0a1.82,1.82,0,0,0-.21,2.3,14.05,14.05,0,0,0,5,4.88,1.8,1.8,0,0,0,2.27-.23h0l2.84,2.84-.52.52a3.19,3.19,0,0,1-3.77.55c-5.13-2.7-7.34-4.76-9.44-9.44A3.34,3.34,0,0,1,234.16,308.27Z"/><rect class="cls-26" x="243.78" y="318.16" width="4.86" height="1.03" rx="0.24" transform="translate(297.46 -80.76) rotate(45)"/><rect class="cls-26" x="233.99" y="308.37" width="4.86" height="1.03" rx="0.24" transform="translate(185.18 694.47) rotate(-135)"/><circle class="cls-17" cx="285.09" cy="314.97" r="12.46"/><rect class="cls-28" x="278.52" y="310.69" width="13.15" height="8.56"/><polygon class="cls-29" points="278.52 319.25 291.67 319.25 285.09 314.97 278.52 319.25"/><polygon class="cls-26" points="291.67 310.69 278.52 310.69 285.09 318.68 291.67 310.69"/><path class="cls-30" d="M281.37,172.24a40.63,40.63,0,0,1-65.56,32.07.1.1,0,0,1-.05,0,40.63,40.63,0,1,1,65.61-32Z"/><path class="cls-31" d="M270.35,200a40.61,40.61,0,0,1-54.54,4.27,13.75,13.75,0,0,1,1.74-4.07,14.08,14.08,0,0,1,5.22-4.88,15.75,15.75,0,0,1,6.73-1.9c1.83-.1,3.85-.21,5.18-.33l.16,0a2.37,2.37,0,0,0,2.08-2.3c0-.8.07-1.59.13-2.35s.09-1.71.18-2.56l.06-.74a15.49,15.49,0,0,1-2-1.25,35.1,35.1,0,0,1-9.52-10.09l-.25-.42a7.19,7.19,0,0,1-5.07-5.37c-.69-3,.13-7,2.66-7.25a3.11,3.11,0,0,1,1.12.12c0-.17,0-.33,0-.46.39-7.42,2.92-12.81,8.92-17.47,5-3.92,12.34-4,17.84-.84,6,3.49,8,11,8.34,17.61,0,.44,0,.9,0,1.37a3.58,3.58,0,0,1,1.7-.33c2.52.21,3.34,4.23,2.65,7.25-.82,3.61-3.41,4.88-5.94,5.67-.72,2-4.52,6.25-5.54,7.29a16.73,16.73,0,0,1-3.44,3.08,8.22,8.22,0,0,0-.79,4.28,11.55,11.55,0,0,0,.16,1.47v0a4.49,4.49,0,0,0,2.05,3.26,7.49,7.49,0,0,0,2.22.82l2,.24,4.26.41a19.54,19.54,0,0,1,9.2,3.31A13.82,13.82,0,0,1,270.35,200Z"/><path class="cls-32" d="M249.92,349.66a9.18,9.18,0,1,1-9.18-9.18A9.18,9.18,0,0,1,249.92,349.66Z"/><g class="cls-2"><path class="cls-33" d="M186.14,242.18h111a7.07,7.07,0,0,0,7.07-7.06h0a7.07,7.07,0,0,0-7.07-7.06h-111a7.06,7.06,0,0,0-7.06,7.06h0A7.06,7.06,0,0,0,186.14,242.18Z"/></g><path class="cls-16" d="M178.42,260.06v97.65a16.26,16.26,0,0,1-1.92,7.69h-7.31a13.32,13.32,0,0,1-13.31-13.31V243.61H162a16.43,16.43,0,0,1,16.46,16.45Z"/><path class="cls-34" d="M75.74,242.23h79.91a16.45,16.45,0,0,1,16.45,16.45v97.65a16.45,16.45,0,0,1-16.45,16.45H75.74a3.54,3.54,0,0,1-3.54-3.54V245.78A3.54,3.54,0,0,1,75.74,242.23Z"/><path class="cls-35" d="M162.66,285.37l-1.84-1.86a1.17,1.17,0,0,0-1.66,0l-.52.52-2.19-2.21c-4.77-4.82-10.81-5.24-18.12-2.69-22.54,10-32.5,20.55-45.55,45.14a15.28,15.28,0,0,0,2.51,18.15l2.19,2.2-.52.52a1.17,1.17,0,0,0,0,1.66l1.84,1.85a1.17,1.17,0,0,0,1.65,0l14.92-14.78a1.18,1.18,0,0,0,0-1.66l-1.84-1.85a1.16,1.16,0,0,0-1.65,0l-.68.67a8.69,8.69,0,0,1-.72-10.62c8.25-12.26,11.34-15.45,23.57-23.73a8.67,8.67,0,0,1,10.87.93l-.68.68a1.16,1.16,0,0,0,0,1.65l1.83,1.86a1.17,1.17,0,0,0,1.66,0L162.65,287A1.17,1.17,0,0,0,162.66,285.37Z"/><path class="cls-36" d="M76,364.09H68.37a1.92,1.92,0,0,1-1.92-1.92h0a1.92,1.92,0,0,1,1.92-1.93H76A1.93,1.93,0,0,1,78,362.17h0A1.93,1.93,0,0,1,76,364.09Z"/><path class="cls-36" d="M76,350.5H68.37a1.92,1.92,0,0,1-1.92-1.93h0a1.92,1.92,0,0,1,1.92-1.92H76A1.93,1.93,0,0,1,78,348.57h0A1.93,1.93,0,0,1,76,350.5Z"/><path class="cls-36" d="M76,336.91H68.37A1.93,1.93,0,0,1,66.45,335h0a1.92,1.92,0,0,1,1.92-1.93H76A1.93,1.93,0,0,1,78,335h0A1.94,1.94,0,0,1,76,336.91Z"/><path class="cls-36" d="M76,323.31H68.37a1.92,1.92,0,0,1-1.92-1.93h0a1.92,1.92,0,0,1,1.92-1.92H76A1.93,1.93,0,0,1,78,321.38h0A1.93,1.93,0,0,1,76,323.31Z"/><path class="cls-36" d="M76,309.72H68.37a1.92,1.92,0,0,1-1.92-1.93h0a1.93,1.93,0,0,1,1.92-1.93H76A1.94,1.94,0,0,1,78,307.79h0A1.93,1.93,0,0,1,76,309.72Z"/><path class="cls-36" d="M76,296.12H68.37a1.92,1.92,0,0,1-1.92-1.92h0a1.92,1.92,0,0,1,1.92-1.93H76A1.93,1.93,0,0,1,78,294.2h0A1.93,1.93,0,0,1,76,296.12Z"/><path class="cls-36" d="M76,282.53H68.37a1.92,1.92,0,0,1-1.92-1.93h0a1.92,1.92,0,0,1,1.92-1.92H76A1.93,1.93,0,0,1,78,280.6h0A1.93,1.93,0,0,1,76,282.53Z"/><path class="cls-36" d="M76,268.94H68.37A1.93,1.93,0,0,1,66.45,267h0a1.93,1.93,0,0,1,1.92-1.93H76A1.94,1.94,0,0,1,78,267h0A1.94,1.94,0,0,1,76,268.94Z"/><path class="cls-36" d="M76,255.34H68.37a1.92,1.92,0,0,1-1.92-1.92h0a1.92,1.92,0,0,1,1.92-1.93H76A1.93,1.93,0,0,1,78,253.42h0A1.93,1.93,0,0,1,76,255.34Z"/><path class="cls-37" d="M157,169.21c-.82,1.73-3.61,7-6.45,7.94l-8.93,21.08a4.56,4.56,0,0,1-7.83,1.05,3.13,3.13,0,0,1-.2-.3l-2.22-4.65-4.18-8.82-1.06-2.22-1.52-3.19.64-3L126.8,170l.59.22a12.93,12.93,0,0,1,1.36.63,11,11,0,0,1,4.55,4.59c.07.13.12.24.18.37l.32.94,1.7,5.1,2.28,6.87.08.23,1-1.54,8.22-12.18c-.55-1.1-1-3.36-.16-6.92l.19-.81a.46.46,0,0,1,.73-.25c.34.29.57.92.38,2.77l2.92-6.3a1.25,1.25,0,0,1,.68-.66c.34-.12.67-.05.52.89l-1.92,5.79,3.18-5.73a1.3,1.3,0,0,1,.81-.64c.39-.09.79,0,.66,1l-3,6.33,3.34-4.6a.92.92,0,0,1,.78-.41c.34,0,.64.23.29,1.12l-2.6,4.8a12.79,12.79,0,0,1,2.39-2.95A.47.47,0,0,1,157,169.21Z"/><path class="cls-34" d="M137.78,188.72a33.23,33.23,0,0,1-6.38,5.61l-4.18-8.82-1.06-2.22-1.52-3.19.64-3L126.8,170l.59.22a12.93,12.93,0,0,1,1.36.63,11,11,0,0,1,4.55,4.59c.07.13.12.24.18.37l.32.94,1.7,5.1Z"/><path class="cls-37" d="M105.91,179.53l-1.64,18.37-.62,7.06A41.26,41.26,0,0,1,101.48,215L92.74,240a3.66,3.66,0,0,1-3.26,2.43L86,242a15.24,15.24,0,0,0-4.81.2c-.76.55-4.36-.41-2.63-2.08,1.25-1.2,2.5-2.38,4.23-2.54l4.47-.4,7.85-28.82.69-13.07.86-16a8.92,8.92,0,0,1,3.9-6.94l2.63-1.79Z"/><path class="cls-34" d="M103.2,170.57l2.71,9-1.64,18.37a66.2,66.2,0,0,1-8.46-2.63l.86-16a8.92,8.92,0,0,1,3.9-6.94Z"/><path class="cls-38" d="M128,180.5c-.25.65-1.22,1.22-2.64,1.68-5.82,2-19.09,2.28-20.29-.3l3.33-10,.07-.21L109,170l1.24-.14a4.46,4.46,0,0,0,1.4-.52,2.83,2.83,0,0,0,1.29-2h0a7.93,7.93,0,0,0,.09-.92,5.09,5.09,0,0,0-.5-2.71l7-1.68.26,2.86q.08.78.12,1.59c0,.49.06,1,.07,1.48a1.46,1.46,0,0,0,1.31,1.45l1.53.2,3.56,7.54Z"/><path class="cls-34" d="M106.16,202.31a25.1,25.1,0,0,1-.91,7.81l0-.05,20.71-.4a21,21,0,0,1,0-5.25c.58-5.17,4.12-9,5-14s-3.65-20.66-3.65-20.66-4.2-.16-6-.33a4.06,4.06,0,0,1,.24,1.12c.56,6.13-8.27,8-10.59,2.28a8.68,8.68,0,0,1-.7-2.9c-.53.13-7,.69-7,.69.17,3.18.8,6.62.21,9.78-.35,1.88-.92,3.72-1.21,5.62a13.39,13.39,0,0,0,1,7.31C104.33,196.2,106,199.1,106.16,202.31Z"/><path class="cls-17" d="M131.27,170.61c.89-4.76-1-9.27-5-10.54a4.9,4.9,0,0,0-5.76,2.33,5.85,5.85,0,0,0-.87,3.81c0,2.25,1.34,3.62,2.34,5.23a6.54,6.54,0,0,1-.25,6.94,13,13,0,0,1-5.61,4.37c-1.61.69-3.63,2.19-5.26,1.68a5.48,5.48,0,0,0,2,.28,29.42,29.42,0,0,0,3.27.27,10.46,10.46,0,0,0,6.84-2.44,24.52,24.52,0,0,0,4.81-4.84C129.25,175.58,130.8,173.12,131.27,170.61Z"/><path class="cls-37" d="M128.66,149.09a2.66,2.66,0,0,0-1.54.45,20.82,20.82,0,0,0-4.44-8.91,7,7,0,0,0-3-2.36,4.93,4.93,0,0,0-1.77-.53c-.41,0-.81-.05-1.21-.05s-.8,0-1.21.05a4.93,4.93,0,0,0-1.77.53,7.06,7.06,0,0,0-3,2.36,20.82,20.82,0,0,0-4.44,8.91,2.64,2.64,0,0,0-1.54-.45c-1.58.14-2.1,2.65-1.66,4.55.55,2.42,2.37,3.18,4.06,3.66a17.81,17.81,0,0,0,3.14,4.47,9.57,9.57,0,0,0,5,3.19l.17,0,.34.08.23,0,.2,0,.45,0,.46,0,.19,0,.24,0L118,165l.18,0a9.65,9.65,0,0,0,5-3.19,17.77,17.77,0,0,0,3.13-4.47c1.69-.48,3.51-1.24,4.07-3.66C130.76,151.74,130.25,149.23,128.66,149.09Z"/><path class="cls-17" d="M123.81,141a5.11,5.11,0,0,0,.29-1.21c.2-2.5-2.47-4.16-4.16-4.83-3.15-1.24-6.36-.3-9.39,1-2.54,1.08-3.75,3.73-5.1,6.42-11.07,22,7.69,27.45,7.69,27.45s-.65-1.46-.88-1.84a21.13,21.13,0,0,1-1.42-2.76,18,18,0,0,1-1.5-6.9c0-3.21.64-7.62,2.74-10a7.35,7.35,0,0,1,3.39-1.91c1.18-.37,2.19-1,3.29-1.48a6.36,6.36,0,0,1-.55,2.22,26.24,26.24,0,0,0,3-2.59,9.71,9.71,0,0,0,1.63,2.24,27.51,27.51,0,0,1,2.46,3.28,11.23,11.23,0,0,1,.78,7.21c.16-.54.48-1.11.61-1.6.26-.92.48-1.84.71-2.76a18.48,18.48,0,0,0,.93-5.44,7.47,7.47,0,0,0-4.4-6.45"/><path class="cls-39" d="M115.78,159.87a4.13,4.13,0,0,1-2.85-3,.29.29,0,0,1,.2-.35.29.29,0,0,1,.36.2,4,4,0,0,0,4.45,2.81.28.28,0,1,1,.09.56A5.38,5.38,0,0,1,115.78,159.87Z"/><path class="cls-39" d="M112.09,153a1,1,0,0,0,1,.91,1,1,0,1,0-1-.91Z"/><path class="cls-39" d="M119.94,153a1,1,0,1,0,.9-1A1,1,0,0,0,119.94,153Z"/><path class="cls-39" d="M110.9,150.55h0a.28.28,0,0,1-.14-.38,2.37,2.37,0,0,1,3-1.4.29.29,0,0,1,.16.37.27.27,0,0,1-.36.17,1.81,1.81,0,0,0-2.32,1.09A.29.29,0,0,1,110.9,150.55Z"/><path class="cls-39" d="M119.53,149.44l0,0a.28.28,0,0,1,.12-.38,2.35,2.35,0,0,1,3.24.85.28.28,0,1,1-.49.29,1.81,1.81,0,0,0-2.48-.63A.28.28,0,0,1,119.53,149.44Z"/><path class="cls-39" d="M117.78,157a.29.29,0,0,1-.28-.28.29.29,0,0,1,.28-.28s.53,0,.67-.3c.06-.13.12-.54-.65-1.5a.28.28,0,0,1,.44-.34c.72.9,1,1.58.71,2.08a1.36,1.36,0,0,1-1.17.62Z"/><path class="cls-37" d="M160.52,265.59l-4.37,2.17c-2.75-1.4-6.85-7-9.77-9.81-11.28-10.72-21.24-25.12-21.24-25.12l-7.94,6.64c-.21.19-.44.36-.67.53a18.1,18.1,0,0,1-10.12,3.84c-5.07.23-7.59-2.14-8.78-5a10.19,10.19,0,0,1,4.1-12.33c9.45-6.13,15.81-8.56,19.65-9.51a8.39,8.39,0,0,1,8,2.24c11.59,11.64,29.72,44.13,29.72,44.13C159.17,263.53,160.41,265.43,160.52,265.59Z"/><path class="cls-38" d="M123.67,278.84l-2,10.09.1.95h-5.44l.18-.95V235.65a4.53,4.53,0,0,1,0-.74,14,14,0,0,1,.79-3.07,5.42,5.42,0,0,1,9.78-.76,22.11,22.11,0,0,1,2.71,9.88h0C130.58,251.55,126.79,265.44,123.67,278.84Z"/><path class="cls-39" d="M116.72,303.93h0a9.15,9.15,0,0,1-1.07-5.05l.7-9h5.44l.52,9a9.09,9.09,0,0,1-1.08,4.88l-.1.19A2.5,2.5,0,0,1,116.72,303.93Z"/><path class="cls-17" d="M104.76,244a21.81,21.81,0,0,0,12-2.75c-.36-.36-.69-.72-1-1.08a20.1,20.1,0,0,1-2.84-4c-4.58-8.75,2.14-18.67,12-18.82,3.2-.05,6.48,4.44,7.37,5.18-1.18-2.59-6-10-6.3-12.78l-20.71.4,0,.05c-4.86,8.49-8.45,16.55-9,23.59A9.47,9.47,0,0,0,104.76,244Z"/><path class="cls-39" d="M155,267.32c.7,7.81,6.55,5.25,19.42-1,1.78-.89,2.12-3.38-1.38-2.85l-13.47,1.18C157.93,265.54,155,267.32,155,267.32Z"/><rect class="cls-40" x="126.24" y="147.25" width="4.23" height="9.12" rx="1.17" transform="translate(256.7 303.62) rotate(180)"/><path class="cls-40" d="M122.07,160.6c7-.06,7-4.8,7-4.85h-1.47c0,.14-.13,3.34-5.58,3.39Z"/><rect class="cls-40" x="118.83" y="158.22" width="4.01" height="2.65" rx="0.64" transform="translate(241.66 319.1) rotate(180)"/><rect class="cls-40" x="103.1" y="147.25" width="4.23" height="9.12" rx="1.17" transform="translate(210.43 303.62) rotate(180)"/><path class="cls-40" d="M104.48,148.42l1.47,0c-.15-6.35,1.48-9.64,5.64-11.37a13.49,13.49,0,0,1,9.12-.44c4.91,1.49,7.16,5.26,6.91,11.53l1.47.06c.28-6.93-2.39-11.31-7.94-13a15,15,0,0,0-10.13.49C105,138.15,104.36,143.51,104.48,148.42Z"/><path class="cls-18" d="M126.53,156.12a1.59,1.59,0,0,0-.1.51C126.47,156.46,126.5,156.29,126.53,156.12Z"/><polygon class="cls-41" points="394.01 133.71 405.73 133.71 386.94 150.1 368.83 151.41 344.54 133.1 358.44 132.67 394.01 133.71"/><path class="cls-19" d="M360.67,112.1c1.73,6.6-1.82,14.52-4.84,20.65,0,0,16.92,12.09,38.18,1l-1.74-4.63a28.45,28.45,0,0,1-1.71-15.9l3.59-20a9.45,9.45,0,0,0-6.43-10.67L382.91,81l-1.51-.47a18.2,18.2,0,0,0-5.53-.86h-2a18.29,18.29,0,0,0-8.43,2.06h0l-4.56,2.36a9.43,9.43,0,0,0-4.77,10.78Z"/><path class="cls-38" d="M374.88,84.55h0a3.71,3.71,0,0,0,3.71-3.71V73.33a1,1,0,0,0-1-1h-5.39a1,1,0,0,0-1,1v7.51A3.71,3.71,0,0,0,374.88,84.55Z"/><path class="cls-37" d="M388.7,68.17c-.55,2.41-2.37,3.16-4.07,3.65a17.69,17.69,0,0,1-3.13,4.47,9.5,9.5,0,0,1-5,3.18l-.17,0-.34.08-.24,0-.19,0-.45,0-.45,0-.21,0-.22,0-.34-.08-.18,0a9.49,9.49,0,0,1-5-3.18,18.62,18.62,0,0,1-2.78-3.8c-.12-.23-.24-.44-.35-.67a8.18,8.18,0,0,1-1.5-.55,4.29,4.29,0,0,1-2.56-3.1,5.11,5.11,0,0,1,.55-3.89,1.53,1.53,0,0,1,1.11-.67,2.76,2.76,0,0,1,1.54.44,21.07,21.07,0,0,1,4.43-8.89,7.13,7.13,0,0,1,2.95-2.36,4.76,4.76,0,0,1,1.78-.52,14.67,14.67,0,0,1,2.42,0,4.67,4.67,0,0,1,1.76.52,7.06,7.06,0,0,1,2.95,2.36,20.73,20.73,0,0,1,4.43,8.89,4.6,4.6,0,0,1,.69-.31,2.21,2.21,0,0,1,.85-.13C388.62,63.75,389.13,66.26,388.7,68.17Z"/><path class="cls-42" d="M369.23,65.34a.3.3,0,0,0,.3-.17,2,2,0,0,1,2.71-1,.32.32,0,0,0,.27-.59A2.67,2.67,0,0,0,369,64.87a.33.33,0,0,0,.14.44A.28.28,0,0,0,369.23,65.34Z"/><path class="cls-42" d="M378.68,64.53a.27.27,0,0,0,.29,0,1.71,1.71,0,0,1,2.29.83.27.27,0,0,0,.49-.23,2.23,2.23,0,0,0-3-1.1.27.27,0,0,0-.16.35A.36.36,0,0,0,378.68,64.53Z"/><path class="cls-42" d="M374.77,74.14a.34.34,0,0,0-.27-.23,2,2,0,0,1-1.92-2.16.31.31,0,0,0-.29-.34.32.32,0,0,0-.35.29,2.66,2.66,0,0,0,2.48,2.85.31.31,0,0,0,.36-.28A.29.29,0,0,0,374.77,74.14Z"/><path class="cls-42" d="M376.39,73.12a1.22,1.22,0,0,0,.67-.2c.63-.41.79-1.36.43-2.53l-.83-3.91a.28.28,0,0,0-.33-.21.28.28,0,0,0-.22.33l.84,3.93c.34,1.11.12,1.72-.2,1.92s-.83.1-1.28-.3a.29.29,0,0,0-.4,0,.27.27,0,0,0,0,.38A2.09,2.09,0,0,0,376.39,73.12Z"/><path class="cls-42" d="M380.71,67.38a1,1,0,1,1-.86-1.12A1,1,0,0,1,380.71,67.38Z"/><path class="cls-42" d="M372.3,67.38a1,1,0,1,1-1.89-.15,1,1,0,1,1,1.89.15Z"/><path class="cls-19" d="M390.22,83.61a9.12,9.12,0,0,1,4.09,2.51c1.85,1.89,18.44,31.18,18.44,31.18.59,3.51-11.6,5.49-11.6,5.49l-11-18.35Z"/><path class="cls-37" d="M378.8,132l-.94-4.88a2.17,2.17,0,0,1,1.23-2.38l1-.48a3.41,3.41,0,0,1,3.5.41l3.68,2.87a1.78,1.78,0,0,0,2,.14l.2-.12,2.92-1.7s15.76-13.24,20.32-8.52a5.7,5.7,0,0,1-3.32,8.66l-14.49,3.76-3.89,1-2.57.67a3.13,3.13,0,0,1-1.58,0l-5.27-1.65a.62.62,0,0,0-.79.49l-.6,1.85A.74.74,0,0,1,378.8,132Z"/><path class="cls-19" d="M361.72,83.61a9.07,9.07,0,0,0-4.08,2.51C355.78,88,339.2,117.3,339.2,117.3c-.6,3.51,11.6,5.49,11.6,5.49l11-18.35Z"/><path class="cls-37" d="M373.14,132l.95-4.88a2.18,2.18,0,0,0-1.24-2.38l-1-.48a3.41,3.41,0,0,0-3.5.41l-3.67,2.87a1.79,1.79,0,0,1-2,.14l-.21-.12-2.91-1.7s-15.76-13.24-20.32-8.52a5.69,5.69,0,0,0,3.31,8.66L357,129.72l3.9,1,2.56.67a3.13,3.13,0,0,0,1.58,0l5.28-1.65a.61.61,0,0,1,.78.49l.6,1.85A.74.74,0,0,0,373.14,132Z"/><rect class="cls-43" x="353.05" y="109.63" width="44.17" height="28.44"/><path class="cls-44" d="M397.93,138.07H352.34a1.11,1.11,0,0,0-1.11,1.11h0a1.11,1.11,0,0,0,1.11,1.1h45.59a1.11,1.11,0,0,0,1.11-1.1h0A1.11,1.11,0,0,0,397.93,138.07Z"/><path class="cls-44" d="M379.25,125.87A3.85,3.85,0,1,1,375.4,122,3.85,3.85,0,0,1,379.25,125.87Z"/><path class="cls-27" d="M336.54,143.24a8.31,8.31,0,0,0,6.39,6.28,5.4,5.4,0,0,0,.82.13,222.89,222.89,0,0,0,35,6.35c3.44.38,7,.69,10.51,1l6.17,5.73.17.15a3.89,3.89,0,0,0,6.16-3.82l-.36-2.05v0a6.08,6.08,0,0,0-4.65-3.82l-6.38-1.17c-3.07-1-6.1-1.95-9.05-2.93-12.83-4.31-24.26-8.89-33.09-15.11a8.22,8.22,0,0,0-5.38-.6A8.32,8.32,0,0,0,336.54,143.24Z"/><path class="cls-42" d="M378.71,156c3.44.38,7,.69,10.51,1l6.17,5.73.17.15a3.89,3.89,0,0,0,6.16-3.82l-.36-2.05v0a6.08,6.08,0,0,0-4.65-3.82l-6.38-1.17c-3.07-1-6.1-1.95-9.05-2.93Z"/><path class="cls-27" d="M356.4,162.32l.17-.15,6.25-5.81c3.19-.33,6.34-.67,9.42-1,13.75-1.59,26.28-3.49,35.51-6.22.28,0,.54-.08.82-.13a8.3,8.3,0,1,0-5.27-15.62c-9.46,6.12-20.67,11.06-33.05,15.2-3.12,1.06-6.3,2-9.56,3v0l-5.46,1a6.07,6.07,0,0,0-4.64,3.82s0,0,0,0l-.36,2.05A3.9,3.9,0,0,0,356.4,162.32Z"/><path class="cls-42" d="M356.4,162.32l.17-.15,6.25-5.81c3.19-.33,6.34-.67,9.42-1-.5-1.71-1.32-4.48-2-6.77-3.12,1.06-6.3,2-9.56,3v0l-5.46,1a6.07,6.07,0,0,0-4.64,3.82s0,0,0,0l-.36,2.05A3.9,3.9,0,0,0,356.4,162.32Z"/><path class="cls-45" d="M386.18,63.74a15.8,15.8,0,0,1-.51,2.79c-.37,1.31-.95,2.55-1.38,3.84s-.65,2.42-1.08,3.6a33,33,0,0,0-.78-8c-.44-2.69-1.58-5-2.42-7.56a8.57,8.57,0,0,0,.15,4.89c-2.08-.31-2.86-3-3.84-4.71-.55,2,.3,3.89.05,5.76-1.65-.75-3.07-3.18-3.62-5.09-.13,1,0,2.14-.14,3.21s-.32,1.86-.42,2.85c-.61,0-1.53-1.69-1.78-2.39a26.22,26.22,0,0,1-.59-2.69c.08.73-.81,2-1.19,2.71a25.16,25.16,0,0,0-1.72,3.76,21.8,21.8,0,0,0-.93,5.73c-.12-.23-.24-.44-.35-.67a8.18,8.18,0,0,1-1.5-.55c-.43-1-.87-2-1.25-3a12.9,12.9,0,0,1-.76-4,15.73,15.73,0,0,1,.94-5.65c.42,1,.81,2.64,1.59,3.39a25.68,25.68,0,0,1,.48-4.9A25.75,25.75,0,0,1,367,52.94c0,1.2,0,2.55.84,3.42-.11-1.16,1.16-3.14,1.79-4a9.14,9.14,0,0,1,3.13-3.09,3.67,3.67,0,0,0-.29,1.31c1.5-1.25,4.19-1.45,5.94-1.24a10.25,10.25,0,0,1,5.69,3.28c1.31,1.63,1.66,4.29,2,6.41A17.33,17.33,0,0,1,386.18,63.74Z"/><rect class="cls-40" x="361.31" y="62.04" width="4.23" height="9.12" rx="1.17"/><rect class="cls-40" x="384.44" y="62.04" width="4.23" height="9.12" rx="1.17"/><path class="cls-40" d="M387.29,63.21l-1.47,0c.16-6.35-1.48-9.64-5.63-11.37a13.52,13.52,0,0,0-9.13-.44c-4.9,1.49-7.16,5.26-6.9,11.53l-1.48.06c-.28-6.93,2.39-11.31,7.95-13a15,15,0,0,1,10.12.49C386.73,52.94,387.41,58.3,387.29,63.21Z"/><path class="cls-40" d="M369.72,75.59c-7-.06-7-4.8-7-4.85h1.47c0,.14.13,3.34,5.58,3.39Z"/><rect class="cls-40" x="368.96" y="73.21" width="4.01" height="2.65" rx="0.64"/></g></g></g></svg>